<mxfile host="Electron" modified="2024-11-21T06:26:52.125Z" agent="Mozilla/5.0 (Windows NT 10.0; Win64; x64) AppleWebKit/537.36 (KHTML, like Gecko) draw.io/21.1.2 Chrome/106.0.5249.199 Electron/21.4.3 Safari/537.36" etag="Z2uwoeeRw4CITeMlA90z" version="21.1.2" type="device">
  <diagram name="Page-1" id="HeXPktgPaNIpCBKWctS1">
    <mxGraphModel dx="1460" dy="846" grid="1" gridSize="10" guides="1" tooltips="1" connect="1" arrows="1" fold="1" page="1" pageScale="1" pageWidth="1700" pageHeight="1100" math="0" shadow="0">
      <root>
        <mxCell id="0" />
        <mxCell id="1" parent="0" />
        <mxCell id="mVhpWavgywqiYwAb7ASk-4" value="&lt;font style=&quot;font-size: 18px;&quot;&gt;OUTPUT &quot;Hello, I&#39;m Javis (RMUTL-Version).&quot;&lt;/font&gt;" style="shape=parallelogram;perimeter=parallelogramPerimeter;whiteSpace=wrap;html=1;fixedSize=1;" vertex="1" parent="1">
          <mxGeometry x="470" y="220" width="520" height="60" as="geometry" />
        </mxCell>
        <mxCell id="mVhpWavgywqiYwAb7ASk-5" value="&lt;font style=&quot;font-size: 18px;&quot;&gt;OUTPUT &quot;This is my first time to coding with C language.&quot;&lt;/font&gt;" style="shape=parallelogram;perimeter=parallelogramPerimeter;whiteSpace=wrap;html=1;fixedSize=1;" vertex="1" parent="1">
          <mxGeometry x="455" y="330" width="550" height="60" as="geometry" />
        </mxCell>
        <mxCell id="mVhpWavgywqiYwAb7ASk-6" value="&lt;font style=&quot;font-size: 18px;&quot;&gt;OUTPUT &quot;Today is my birthday.&quot;&lt;/font&gt;" style="shape=parallelogram;perimeter=parallelogramPerimeter;whiteSpace=wrap;html=1;fixedSize=1;" vertex="1" parent="1">
          <mxGeometry x="450" y="440" width="560" height="60" as="geometry" />
        </mxCell>
        <mxCell id="mVhpWavgywqiYwAb7ASk-7" value="&lt;font style=&quot;font-size: 18px;&quot;&gt;Stop&lt;/font&gt;" style="strokeWidth=2;html=1;shape=mxgraph.flowchart.terminator;whiteSpace=wrap;" vertex="1" parent="1">
          <mxGeometry x="680" y="550" width="100" height="60" as="geometry" />
        </mxCell>
        <mxCell id="mVhpWavgywqiYwAb7ASk-8" value="&lt;font style=&quot;font-size: 18px;&quot;&gt;Start&lt;/font&gt;" style="strokeWidth=2;html=1;shape=mxgraph.flowchart.terminator;whiteSpace=wrap;" vertex="1" parent="1">
          <mxGeometry x="680" y="70" width="100" height="60" as="geometry" />
        </mxCell>
        <mxCell id="mVhpWavgywqiYwAb7ASk-9" value="" style="endArrow=classic;html=1;rounded=0;exitX=0.5;exitY=1;exitDx=0;exitDy=0;exitPerimeter=0;" edge="1" parent="1" source="mVhpWavgywqiYwAb7ASk-8" target="mVhpWavgywqiYwAb7ASk-4">
          <mxGeometry width="50" height="50" relative="1" as="geometry">
            <mxPoint x="830" y="210" as="sourcePoint" />
            <mxPoint x="880" y="160" as="targetPoint" />
          </mxGeometry>
        </mxCell>
        <mxCell id="mVhpWavgywqiYwAb7ASk-10" value="" style="endArrow=classic;html=1;rounded=0;exitX=0.5;exitY=1;exitDx=0;exitDy=0;" edge="1" parent="1" source="mVhpWavgywqiYwAb7ASk-4" target="mVhpWavgywqiYwAb7ASk-5">
          <mxGeometry width="50" height="50" relative="1" as="geometry">
            <mxPoint x="790" y="410" as="sourcePoint" />
            <mxPoint x="840" y="360" as="targetPoint" />
          </mxGeometry>
        </mxCell>
        <mxCell id="mVhpWavgywqiYwAb7ASk-11" value="" style="endArrow=classic;html=1;rounded=0;exitX=0.5;exitY=1;exitDx=0;exitDy=0;entryX=0.5;entryY=0;entryDx=0;entryDy=0;" edge="1" parent="1" source="mVhpWavgywqiYwAb7ASk-5" target="mVhpWavgywqiYwAb7ASk-6">
          <mxGeometry width="50" height="50" relative="1" as="geometry">
            <mxPoint x="710" y="460" as="sourcePoint" />
            <mxPoint x="760" y="410" as="targetPoint" />
          </mxGeometry>
        </mxCell>
        <mxCell id="mVhpWavgywqiYwAb7ASk-12" value="" style="endArrow=classic;html=1;rounded=0;entryX=0.5;entryY=0;entryDx=0;entryDy=0;entryPerimeter=0;exitX=0.5;exitY=1;exitDx=0;exitDy=0;" edge="1" parent="1" source="mVhpWavgywqiYwAb7ASk-6" target="mVhpWavgywqiYwAb7ASk-7">
          <mxGeometry width="50" height="50" relative="1" as="geometry">
            <mxPoint x="610" y="560" as="sourcePoint" />
            <mxPoint x="660" y="510" as="targetPoint" />
          </mxGeometry>
        </mxCell>
      </root>
    </mxGraphModel>
  </diagram>
</mxfile>
